<mxfile host="app.diagrams.net" modified="2024-02-21T22:58:34.243Z" agent="Mozilla/5.0 (X11; Linux x86_64; rv:123.0) Gecko/20100101 Firefox/123.0" version="23.1.5" etag="j6emvMo2qBxBgMDICG4K" type="github">
  <diagram name="PÃ¡gina-1" id="CbXF6pFR-kaQZnDhuL6v">
    <mxGraphModel>
      <root>
        <mxCell id="0" />
        <mxCell id="1" parent="0" />
      </root>
    </mxGraphModel>
  </diagram>
</mxfile>
